<svg width="281" height="60" viewBox="0 0 281 60" fill="none" xmlns="http://www.w3.org/2000/svg">
<path d="M9.375 57.5L4.34 51.2075C2.7438 49.2121 1.87444 46.7328 1.875 44.1775V31.25C1.875 30.2554 2.27009 29.3016 2.97335 28.5983C3.67661 27.8951 4.63044 27.5 5.625 27.5V27.5C6.61956 27.5 7.57339 27.8951 8.27665 28.5983C8.97991 29.3016 9.375 30.2554 9.375 31.25V40.625" stroke="#1ECC97" stroke-width="3" stroke-linecap="round" stroke-linejoin="round"/>
<path d="M20.625 57.16V49.66C20.627 47.4352 19.9684 45.2599 18.7325 43.41L15.8775 39.135C15.6339 38.7288 15.3104 38.3763 14.9265 38.0987C14.5427 37.8212 14.1065 37.6245 13.6445 37.5205C13.1824 37.4165 12.704 37.4073 12.2382 37.4936C11.7725 37.5799 11.3292 37.7598 10.935 38.0225V38.0225C10.2259 38.4963 9.71414 39.2127 9.49594 40.0372C9.27774 40.8617 9.36808 41.7374 9.75 42.5L13.125 48.125" stroke="#1ECC97" stroke-width="3" stroke-linecap="round" stroke-linejoin="round"/>
<path d="M50.625 57.5L55.66 51.2075C57.2562 49.2121 58.1256 46.7328 58.125 44.1775V31.25C58.125 30.2554 57.7299 29.3016 57.0266 28.5983C56.3234 27.8951 55.3696 27.5 54.375 27.5C53.3804 27.5 52.4266 27.8951 51.7234 28.5983C51.0201 29.3016 50.625 30.2554 50.625 31.25V40.625" stroke="#1ECC97" stroke-width="3" stroke-linecap="round" stroke-linejoin="round"/>
<path d="M39.375 57.16V49.66C39.373 47.4352 40.0316 45.2599 41.2675 43.41L44.1225 39.13C44.3661 38.7238 44.6896 38.3712 45.0735 38.0937C45.4573 37.8162 45.8935 37.6195 46.3555 37.5155C46.8176 37.4115 47.296 37.4023 47.7618 37.4886C48.2275 37.5749 48.6708 37.7548 49.065 38.0175V38.0175C49.7754 38.4915 50.2879 39.2088 50.5062 40.0344C50.7244 40.86 50.6333 41.7369 50.25 42.5L46.875 48.125" stroke="#1ECC97" stroke-width="3" stroke-linecap="round" stroke-linejoin="round"/>
<path d="M10.0575 18.125L27.5775 3.29999C28.2546 2.72696 29.1129 2.41251 30 2.41251C30.887 2.41251 31.7454 2.72696 32.4225 3.29999L49.95 18.13" stroke="#1ECC97" stroke-width="3" stroke-linecap="round" stroke-linejoin="round"/>
<path d="M39.825 21.4725C39.3814 21.0069 38.8479 20.6363 38.2568 20.3831C37.6657 20.1299 37.0293 19.9993 36.3863 19.9993C35.7432 19.9993 35.1068 20.1299 34.5157 20.3831C33.9246 20.6363 33.3911 21.0069 32.9475 21.4725L30 24.52L27.0525 21.4725C26.6089 21.0069 26.0754 20.6363 25.4843 20.3831C24.8932 20.1299 24.2568 19.9993 23.6138 19.9993C22.9707 19.9993 22.3343 20.1299 21.7432 20.3831C21.1521 20.6363 20.6186 21.0069 20.175 21.4725C19.2603 22.4305 18.75 23.7042 18.75 25.0287C18.75 26.3533 19.2603 27.6269 20.175 28.585L28.9525 37.6625C29.0877 37.8042 29.2502 37.9171 29.4303 37.9941C29.6103 38.0712 29.8041 38.111 30 38.111C30.1959 38.111 30.3897 38.0712 30.5697 37.9941C30.7498 37.9171 30.9123 37.8042 31.0475 37.6625L39.825 28.585C40.7397 27.6269 41.25 26.3533 41.25 25.0287C41.25 23.7042 40.7397 22.4305 39.825 21.4725V21.4725Z" stroke="#1ECC97" stroke-width="3" stroke-linecap="round" stroke-linejoin="round"/>
<path d="M86.7754 5.33887H82.8555V16H80.2188V5.33887H76.3516V3.20312H86.7754V5.33887ZM91.6881 16.1758C90.2935 16.1758 89.1568 15.748 88.2779 14.8926C87.4049 14.0371 86.9683 12.8975 86.9683 11.4736V11.2275C86.9683 10.2725 87.1529 9.41992 87.522 8.66992C87.8912 7.91406 88.4127 7.33398 89.0865 6.92969C89.7662 6.51953 90.5396 6.31445 91.4068 6.31445C92.7076 6.31445 93.73 6.72461 94.4742 7.54492C95.2242 8.36523 95.5992 9.52832 95.5992 11.0342V12.0713H89.5435C89.6256 12.6924 89.8716 13.1904 90.2818 13.5654C90.6978 13.9404 91.2222 14.1279 91.855 14.1279C92.8336 14.1279 93.5982 13.7734 94.149 13.0645L95.397 14.4619C95.0162 15.001 94.5006 15.4229 93.8502 15.7275C93.1998 16.0264 92.4791 16.1758 91.6881 16.1758ZM91.398 8.37109C90.8941 8.37109 90.484 8.54102 90.1675 8.88086C89.857 9.2207 89.6578 9.70703 89.5699 10.3398H93.1031V10.1377C93.0914 9.5752 92.939 9.1416 92.6461 8.83691C92.3531 8.52637 91.9371 8.37109 91.398 8.37109ZM99.3693 6.49023L99.4484 7.58887C100.128 6.73926 101.039 6.31445 102.182 6.31445C103.19 6.31445 103.94 6.61035 104.432 7.20215C104.924 7.79395 105.176 8.67871 105.188 9.85645V16H102.648V9.91797C102.648 9.37891 102.53 8.98926 102.296 8.74902C102.062 8.50293 101.672 8.37988 101.127 8.37988C100.412 8.37988 99.8761 8.68457 99.5187 9.29395V16H96.9786V6.49023H99.3693ZM112.614 16C112.497 15.7715 112.412 15.4873 112.359 15.1475C111.744 15.833 110.944 16.1758 109.96 16.1758C109.028 16.1758 108.255 15.9062 107.639 15.3672C107.03 14.8281 106.725 14.1484 106.725 13.3281C106.725 12.3203 107.097 11.5469 107.842 11.0078C108.592 10.4688 109.673 10.1963 111.085 10.1904H112.254V9.64551C112.254 9.20605 112.139 8.85449 111.911 8.59082C111.688 8.32715 111.334 8.19531 110.847 8.19531C110.42 8.19531 110.083 8.29785 109.837 8.50293C109.596 8.70801 109.476 8.98926 109.476 9.34668H106.936C106.936 8.7959 107.106 8.28613 107.446 7.81738C107.786 7.34863 108.266 6.98242 108.887 6.71875C109.508 6.44922 110.206 6.31445 110.979 6.31445C112.151 6.31445 113.08 6.61035 113.765 7.20215C114.457 7.78809 114.802 8.61426 114.802 9.68066V13.8027C114.808 14.7051 114.934 15.3877 115.18 15.8506V16H112.614ZM110.513 14.2334C110.888 14.2334 111.234 14.1514 111.55 13.9873C111.867 13.8174 112.101 13.5918 112.254 13.3105V11.6758H111.304C110.033 11.6758 109.356 12.1152 109.274 12.9941L109.265 13.1436C109.265 13.46 109.377 13.7207 109.599 13.9258C109.822 14.1309 110.127 14.2334 110.513 14.2334ZM119.074 6.49023L119.153 7.58887C119.832 6.73926 120.743 6.31445 121.886 6.31445C122.894 6.31445 123.644 6.61035 124.136 7.20215C124.628 7.79395 124.88 8.67871 124.892 9.85645V16H122.352V9.91797C122.352 9.37891 122.235 8.98926 122 8.74902C121.766 8.50293 121.376 8.37988 120.831 8.37988C120.116 8.37988 119.58 8.68457 119.223 9.29395V16H116.683V6.49023H119.074ZM129.848 4.15234V6.49023H131.474V8.35352H129.848V13.0996C129.848 13.4512 129.916 13.7031 130.051 13.8555C130.185 14.0078 130.443 14.084 130.824 14.084C131.105 14.084 131.354 14.0635 131.571 14.0225V15.9473C131.073 16.0996 130.56 16.1758 130.033 16.1758C128.252 16.1758 127.344 15.2764 127.308 13.4775V8.35352H125.92V6.49023H127.308V4.15234H129.848ZM83.7783 32.6426C83.7783 32.1445 83.6025 31.7637 83.251 31.5C82.8994 31.2305 82.2666 30.9492 81.3525 30.6562C80.4385 30.3574 79.7148 30.0645 79.1816 29.7773C77.7285 28.9922 77.002 27.9346 77.002 26.6045C77.002 25.9131 77.1953 25.2979 77.582 24.7588C77.9746 24.2139 78.5342 23.7891 79.2607 23.4844C79.9932 23.1797 80.8135 23.0273 81.7217 23.0273C82.6357 23.0273 83.4502 23.1943 84.165 23.5283C84.8799 23.8564 85.4336 24.3223 85.8262 24.9258C86.2246 25.5293 86.4238 26.2148 86.4238 26.9824H83.7871C83.7871 26.3965 83.6025 25.9424 83.2334 25.6201C82.8643 25.292 82.3457 25.1279 81.6777 25.1279C81.0332 25.1279 80.5322 25.2656 80.1748 25.541C79.8174 25.8105 79.6387 26.168 79.6387 26.6133C79.6387 27.0293 79.8467 27.3779 80.2627 27.6592C80.6846 27.9404 81.3027 28.2041 82.1172 28.4502C83.6172 28.9014 84.71 29.4609 85.3955 30.1289C86.0811 30.7969 86.4238 31.6289 86.4238 32.625C86.4238 33.7324 86.0049 34.6025 85.167 35.2354C84.3291 35.8623 83.2012 36.1758 81.7832 36.1758C80.7988 36.1758 79.9023 35.9971 79.0938 35.6396C78.2852 35.2764 77.667 34.7812 77.2393 34.1543C76.8174 33.5273 76.6064 32.8008 76.6064 31.9746H79.252C79.252 33.3867 80.0957 34.0928 81.7832 34.0928C82.4102 34.0928 82.8994 33.9668 83.251 33.7148C83.6025 33.457 83.7783 33.0996 83.7783 32.6426ZM93.5425 36C93.4254 35.7715 93.3404 35.4873 93.2877 35.1475C92.6724 35.833 91.8726 36.1758 90.8883 36.1758C89.9566 36.1758 89.1832 35.9062 88.5679 35.3672C87.9586 34.8281 87.6539 34.1484 87.6539 33.3281C87.6539 32.3203 88.0259 31.5469 88.7701 31.0078C89.5201 30.4688 90.6011 30.1963 92.0133 30.1904H93.1822V29.6455C93.1822 29.2061 93.0679 28.8545 92.8394 28.5908C92.6168 28.3271 92.2623 28.1953 91.7759 28.1953C91.3482 28.1953 91.0113 28.2979 90.7652 28.5029C90.525 28.708 90.4049 28.9893 90.4049 29.3467H87.8648C87.8648 28.7959 88.0347 28.2861 88.3746 27.8174C88.7144 27.3486 89.1949 26.9824 89.816 26.7188C90.4371 26.4492 91.1343 26.3145 91.9078 26.3145C93.0797 26.3145 94.0084 26.6104 94.6939 27.2021C95.3853 27.7881 95.731 28.6143 95.731 29.6807V33.8027C95.7369 34.7051 95.8629 35.3877 96.109 35.8506V36H93.5425ZM91.442 34.2334C91.817 34.2334 92.1627 34.1514 92.4791 33.9873C92.7955 33.8174 93.0299 33.5918 93.1822 33.3105V31.6758H92.233C90.9615 31.6758 90.2847 32.1152 90.2027 32.9941L90.1939 33.1436C90.1939 33.46 90.3052 33.7207 90.5279 33.9258C90.7506 34.1309 91.0552 34.2334 91.442 34.2334ZM100.705 24.1523V26.4902H102.331V28.3535H100.705V33.0996C100.705 33.4512 100.773 33.7031 100.907 33.8555C101.042 34.0078 101.3 34.084 101.681 34.084C101.962 34.084 102.211 34.0635 102.428 34.0225V35.9473C101.93 36.0996 101.417 36.1758 100.89 36.1758C99.1085 36.1758 98.2003 35.2764 98.1652 33.4775V28.3535H96.7765V26.4902H98.1652V24.1523H100.705ZM106.409 36H103.86V26.4902H106.409V36ZM103.711 24.0293C103.711 23.6484 103.837 23.335 104.089 23.0889C104.346 22.8428 104.695 22.7197 105.134 22.7197C105.568 22.7197 105.914 22.8428 106.172 23.0889C106.429 23.335 106.558 23.6484 106.558 24.0293C106.558 24.416 106.426 24.7324 106.163 24.9785C105.905 25.2246 105.562 25.3477 105.134 25.3477C104.707 25.3477 104.361 25.2246 104.097 24.9785C103.84 24.7324 103.711 24.416 103.711 24.0293ZM113.642 33.3721C113.642 33.0615 113.487 32.8184 113.176 32.6426C112.871 32.4609 112.379 32.2998 111.699 32.1592C109.438 31.6846 108.307 30.7236 108.307 29.2764C108.307 28.4326 108.656 27.7295 109.353 27.167C110.056 26.5986 110.973 26.3145 112.104 26.3145C113.311 26.3145 114.275 26.5986 114.995 27.167C115.722 27.7354 116.085 28.4736 116.085 29.3818H113.545C113.545 29.0186 113.428 28.7197 113.194 28.4854C112.959 28.2451 112.593 28.125 112.095 28.125C111.667 28.125 111.336 28.2217 111.102 28.415C110.867 28.6084 110.75 28.8545 110.75 29.1533C110.75 29.4346 110.882 29.6631 111.146 29.8389C111.415 30.0088 111.866 30.1582 112.499 30.2871C113.132 30.4102 113.665 30.5508 114.099 30.709C115.441 31.2012 116.112 32.0537 116.112 33.2666C116.112 34.1338 115.74 34.8369 114.995 35.376C114.251 35.9092 113.29 36.1758 112.113 36.1758C111.316 36.1758 110.607 36.0352 109.986 35.7539C109.37 35.4668 108.887 35.0771 108.535 34.585C108.184 34.0869 108.008 33.5508 108.008 32.9766H110.416C110.44 33.4277 110.607 33.7734 110.917 34.0137C111.228 34.2539 111.644 34.374 112.165 34.374C112.652 34.374 113.018 34.2832 113.264 34.1016C113.516 33.9141 113.642 33.6709 113.642 33.3721ZM118.431 36V28.3535H117.016V26.4902H118.431V25.6816C118.431 24.6152 118.736 23.7891 119.346 23.2031C119.961 22.6113 120.819 22.3154 121.921 22.3154C122.272 22.3154 122.703 22.374 123.213 22.4912L123.186 24.46C122.975 24.4072 122.718 24.3809 122.413 24.3809C121.458 24.3809 120.98 24.8291 120.98 25.7256V26.4902H122.87V28.3535H120.98V36H118.431ZM129.681 36C129.564 35.7715 129.479 35.4873 129.426 35.1475C128.811 35.833 128.011 36.1758 127.027 36.1758C126.095 36.1758 125.322 35.9062 124.706 35.3672C124.097 34.8281 123.792 34.1484 123.792 33.3281C123.792 32.3203 124.164 31.5469 124.909 31.0078C125.659 30.4688 126.74 30.1963 128.152 30.1904H129.321V29.6455C129.321 29.2061 129.206 28.8545 128.978 28.5908C128.755 28.3271 128.401 28.1953 127.914 28.1953C127.487 28.1953 127.15 28.2979 126.904 28.5029C126.663 28.708 126.543 28.9893 126.543 29.3467H124.003C124.003 28.7959 124.173 28.2861 124.513 27.8174C124.853 27.3486 125.333 26.9824 125.954 26.7188C126.576 26.4492 127.273 26.3145 128.046 26.3145C129.218 26.3145 130.147 26.6104 130.832 27.2021C131.524 27.7881 131.87 28.6143 131.87 29.6807V33.8027C131.875 34.7051 132.001 35.3877 132.247 35.8506V36H129.681ZM127.58 34.2334C127.955 34.2334 128.301 34.1514 128.618 33.9873C128.934 33.8174 129.168 33.5918 129.321 33.3105V31.6758H128.371C127.1 31.6758 126.423 32.1152 126.341 32.9941L126.332 33.1436C126.332 33.46 126.444 33.7207 126.666 33.9258C126.889 34.1309 127.194 34.2334 127.58 34.2334ZM137.758 34.1279C138.227 34.1279 138.607 33.999 138.9 33.7412C139.193 33.4834 139.346 33.1406 139.357 32.7129H141.739C141.733 33.3574 141.558 33.9492 141.212 34.4883C140.866 35.0215 140.392 35.4375 139.788 35.7363C139.19 36.0293 138.528 36.1758 137.802 36.1758C136.442 36.1758 135.37 35.7451 134.585 34.8838C133.8 34.0166 133.407 32.8213 133.407 31.2979V31.1309C133.407 29.666 133.797 28.4971 134.576 27.624C135.355 26.751 136.425 26.3145 137.784 26.3145C138.974 26.3145 139.926 26.6543 140.641 27.334C141.361 28.0078 141.728 28.9072 141.739 30.0322H139.357C139.346 29.54 139.193 29.1416 138.9 28.8369C138.607 28.5264 138.221 28.3711 137.74 28.3711C137.148 28.3711 136.7 28.5879 136.395 29.0215C136.097 29.4492 135.947 30.1465 135.947 31.1133V31.377C135.947 32.3555 136.097 33.0586 136.395 33.4863C136.694 33.9141 137.148 34.1279 137.758 34.1279ZM146.212 24.1523V26.4902H147.838V28.3535H146.212V33.0996C146.212 33.4512 146.28 33.7031 146.415 33.8555C146.549 34.0078 146.807 34.084 147.188 34.084C147.469 34.084 147.718 34.0635 147.935 34.0225V35.9473C147.437 36.0996 146.924 36.1758 146.397 36.1758C144.616 36.1758 143.708 35.2764 143.672 33.4775V28.3535H142.284V26.4902H143.672V24.1523H146.212ZM151.916 36H149.367V26.4902H151.916V36ZM149.218 24.0293C149.218 23.6484 149.344 23.335 149.596 23.0889C149.854 22.8428 150.202 22.7197 150.642 22.7197C151.075 22.7197 151.421 22.8428 151.679 23.0889C151.937 23.335 152.066 23.6484 152.066 24.0293C152.066 24.416 151.934 24.7324 151.67 24.9785C151.412 25.2246 151.069 25.3477 150.642 25.3477C150.214 25.3477 149.868 25.2246 149.605 24.9785C149.347 24.7324 149.218 24.416 149.218 24.0293ZM153.603 31.1572C153.603 30.2139 153.785 29.373 154.148 28.6348C154.511 27.8965 155.033 27.3252 155.713 26.9209C156.398 26.5166 157.192 26.3145 158.094 26.3145C159.378 26.3145 160.424 26.707 161.232 27.4922C162.047 28.2773 162.501 29.3438 162.594 30.6914L162.612 31.3418C162.612 32.8008 162.205 33.9727 161.39 34.8574C160.576 35.7363 159.483 36.1758 158.112 36.1758C156.741 36.1758 155.645 35.7363 154.825 34.8574C154.01 33.9785 153.603 32.7832 153.603 31.2715V31.1572ZM156.143 31.3418C156.143 32.2441 156.313 32.9355 156.653 33.416C156.993 33.8906 157.479 34.1279 158.112 34.1279C158.727 34.1279 159.208 33.8936 159.553 33.4248C159.899 32.9502 160.072 32.1943 160.072 31.1572C160.072 30.2725 159.899 29.5869 159.553 29.1006C159.208 28.6143 158.721 28.3711 158.094 28.3711C157.473 28.3711 156.993 28.6143 156.653 29.1006C156.313 29.5811 156.143 30.3281 156.143 31.3418ZM166.496 26.4902L166.575 27.5889C167.255 26.7393 168.166 26.3145 169.309 26.3145C170.317 26.3145 171.067 26.6104 171.559 27.2021C172.051 27.7939 172.303 28.6787 172.315 29.8564V36H169.775V29.918C169.775 29.3789 169.657 28.9893 169.423 28.749C169.189 28.5029 168.799 28.3799 168.254 28.3799C167.539 28.3799 167.003 28.6846 166.646 29.2939V36H164.106V26.4902H166.496ZM83.7783 52.6426C83.7783 52.1445 83.6025 51.7637 83.251 51.5C82.8994 51.2305 82.2666 50.9492 81.3525 50.6562C80.4385 50.3574 79.7148 50.0645 79.1816 49.7773C77.7285 48.9922 77.002 47.9346 77.002 46.6045C77.002 45.9131 77.1953 45.2979 77.582 44.7588C77.9746 44.2139 78.5342 43.7891 79.2607 43.4844C79.9932 43.1797 80.8135 43.0273 81.7217 43.0273C82.6357 43.0273 83.4502 43.1943 84.165 43.5283C84.8799 43.8564 85.4336 44.3223 85.8262 44.9258C86.2246 45.5293 86.4238 46.2148 86.4238 46.9824H83.7871C83.7871 46.3965 83.6025 45.9424 83.2334 45.6201C82.8643 45.292 82.3457 45.1279 81.6777 45.1279C81.0332 45.1279 80.5322 45.2656 80.1748 45.541C79.8174 45.8105 79.6387 46.168 79.6387 46.6133C79.6387 47.0293 79.8467 47.3779 80.2627 47.6592C80.6846 47.9404 81.3027 48.2041 82.1172 48.4502C83.6172 48.9014 84.71 49.4609 85.3955 50.1289C86.0811 50.7969 86.4238 51.6289 86.4238 52.625C86.4238 53.7324 86.0049 54.6025 85.167 55.2354C84.3291 55.8623 83.2012 56.1758 81.7832 56.1758C80.7988 56.1758 79.9023 55.9971 79.0938 55.6396C78.2852 55.2764 77.667 54.7812 77.2393 54.1543C76.8174 53.5273 76.6064 52.8008 76.6064 51.9746H79.252C79.252 53.3867 80.0957 54.0928 81.7832 54.0928C82.4102 54.0928 82.8994 53.9668 83.251 53.7148C83.6025 53.457 83.7783 53.0996 83.7783 52.6426ZM93.7271 55.0332C93.1002 55.7949 92.233 56.1758 91.1256 56.1758C90.106 56.1758 89.3267 55.8828 88.7877 55.2969C88.2545 54.7109 87.982 53.8525 87.9703 52.7217V46.4902H90.5103V52.6338C90.5103 53.624 90.9615 54.1191 91.8638 54.1191C92.7252 54.1191 93.317 53.8203 93.6392 53.2227V46.4902H96.1881V56H93.7974L93.7271 55.0332ZM100.468 46.4902L100.547 47.5537C101.221 46.7275 102.132 46.3145 103.28 46.3145C104.505 46.3145 105.346 46.7979 105.803 47.7646C106.471 46.7979 107.423 46.3145 108.659 46.3145C109.691 46.3145 110.458 46.6162 110.962 47.2197C111.466 47.8174 111.718 48.7197 111.718 49.9268V56H109.169V49.9355C109.169 49.3965 109.064 49.0039 108.853 48.7578C108.642 48.5059 108.27 48.3799 107.736 48.3799C106.975 48.3799 106.447 48.7432 106.154 49.4697L106.163 56H103.623V49.9443C103.623 49.3936 103.515 48.9951 103.298 48.749C103.081 48.5029 102.712 48.3799 102.191 48.3799C101.47 48.3799 100.948 48.6787 100.626 49.2764V56H98.0861V46.4902H100.468ZM116.042 46.4902L116.121 47.5537C116.795 46.7275 117.706 46.3145 118.854 46.3145C120.079 46.3145 120.92 46.7979 121.377 47.7646C122.045 46.7979 122.997 46.3145 124.233 46.3145C125.264 46.3145 126.032 46.6162 126.536 47.2197C127.04 47.8174 127.292 48.7197 127.292 49.9268V56H124.743V49.9355C124.743 49.3965 124.637 49.0039 124.426 48.7578C124.216 48.5059 123.843 48.3799 123.31 48.3799C122.549 48.3799 122.021 48.7432 121.728 49.4697L121.737 56H119.197V49.9443C119.197 49.3936 119.089 48.9951 118.872 48.749C118.655 48.5029 118.286 48.3799 117.764 48.3799C117.044 48.3799 116.522 48.6787 116.2 49.2764V56H113.66V46.4902H116.042ZM131.914 56H129.366V46.4902H131.914V56ZM129.216 44.0293C129.216 43.6484 129.342 43.335 129.594 43.0889C129.852 42.8428 130.2 42.7197 130.64 42.7197C131.074 42.7197 131.419 42.8428 131.677 43.0889C131.935 43.335 132.064 43.6484 132.064 44.0293C132.064 44.416 131.932 44.7324 131.668 44.9785C131.41 45.2246 131.068 45.3477 130.64 45.3477C130.212 45.3477 129.866 45.2246 129.603 44.9785C129.345 44.7324 129.216 44.416 129.216 44.0293ZM137.038 44.1523V46.4902H138.664V48.3535H137.038V53.0996C137.038 53.4512 137.105 53.7031 137.24 53.8555C137.375 54.0078 137.633 54.084 138.014 54.084C138.295 54.084 138.544 54.0635 138.761 54.0225V55.9473C138.263 56.0996 137.75 56.1758 137.222 56.1758C135.441 56.1758 134.533 55.2764 134.498 53.4775V48.3535H133.109V46.4902H134.498V44.1523H137.038Z" fill="#1ECC97"/>
<rect x="190" y="6" width="1" height="48" fill="#1ECC97"/>
<path d="M217.312 31.834C217.312 33.4486 216.941 34.7474 216.199 35.7305C215.457 36.707 214.461 37.1953 213.211 37.1953C211.876 37.1953 210.844 36.7233 210.115 35.7793L210.027 37H208.367V22H210.174V27.5957C210.903 26.6908 211.909 26.2383 213.191 26.2383C214.474 26.2383 215.48 26.7233 216.209 27.6934C216.945 28.6634 217.312 29.9915 217.312 31.6777V31.834ZM215.506 31.6289C215.506 30.3984 215.268 29.4479 214.793 28.7773C214.318 28.1068 213.634 27.7715 212.742 27.7715C211.551 27.7715 210.695 28.3249 210.174 29.4316V34.002C210.727 35.1087 211.59 35.6621 212.762 35.6621C213.628 35.6621 214.301 35.3268 214.783 34.6562C215.265 33.9857 215.506 32.9766 215.506 31.6289ZM222.917 34.3535L225.378 26.4336H227.312L223.064 38.6309C222.406 40.3887 221.362 41.2676 219.929 41.2676L219.587 41.2383L218.914 41.1113V39.6465L219.402 39.6855C220.014 39.6855 220.489 39.5618 220.828 39.3145C221.173 39.0671 221.456 38.6146 221.677 37.957L222.078 36.8828L218.308 26.4336H220.281L222.917 34.3535Z" fill="#1ECC97"/>
<path fill-rule="evenodd" clip-rule="evenodd" d="M236 19H239.521L239.523 37H236V19Z" fill="#1ECC97"/>
<path fill-rule="evenodd" clip-rule="evenodd" d="M237.762 30.7209L240.278 28.3767L247.241 37H243.047L237.762 30.7209Z" fill="#1ECC97"/>
<path fill-rule="evenodd" clip-rule="evenodd" d="M236 32.3954L242.711 25.5302H247.073L236.336 37H236V32.3954Z" fill="#1ECC97"/>
<path fill-rule="evenodd" clip-rule="evenodd" d="M249.833 25.5964L253.57 25.5964V36.9632H249.833V25.5964Z" fill="#1ECC97"/>
<path fill-rule="evenodd" clip-rule="evenodd" d="M251.648 22.6176C252.71 22.6176 253.57 21.8078 253.57 20.8088C253.57 19.8098 252.71 19 251.648 19C250.586 19 249.725 19.8098 249.725 20.8088C249.725 21.8078 250.586 22.6176 251.648 22.6176Z" fill="#1ECC97"/>
<path fill-rule="evenodd" clip-rule="evenodd" d="M258.441 30.697L260.928 28.3576L267.81 36.9632H263.664L258.441 30.697Z" fill="#1ECC97"/>
<path fill-rule="evenodd" clip-rule="evenodd" d="M256.888 32.368L263.52 25.5169H267.831L257.219 36.9632H256.888V32.368Z" fill="#1ECC97"/>
<path fill-rule="evenodd" clip-rule="evenodd" d="M256.888 19H260.411V37H256.888V19Z" fill="#1ECC97"/>
<path fill-rule="evenodd" clip-rule="evenodd" d="M279.91 31.375C279.91 34.4816 277.353 37 274.199 37C271.045 37 268.488 34.4816 268.488 31.375C268.488 28.2684 271.045 25.75 274.199 25.75C277.353 25.75 279.91 28.2684 279.91 31.375ZM276.864 31.375C276.864 32.9283 275.713 34.1875 274.294 34.1875C272.875 34.1875 271.724 32.9283 271.724 31.375C271.724 29.8217 272.875 28.5625 274.294 28.5625C275.713 28.5625 276.864 29.8217 276.864 31.375Z" fill="#1ECC97"/>
</svg>
